<?xml version="1.0" encoding="UTF-8" standalone="no"?>
<!-- Created with Inkscape (http://www.inkscape.org/) -->

<svg
   xmlns:dc="http://purl.org/dc/elements/1.1/"
   xmlns:cc="http://creativecommons.org/ns#"
   xmlns:rdf="http://www.w3.org/1999/02/22-rdf-syntax-ns#"
   xmlns:svg="http://www.w3.org/2000/svg"
   xmlns="http://www.w3.org/2000/svg"
   xmlns:sodipodi="http://sodipodi.sourceforge.net/DTD/sodipodi-0.dtd"
   xmlns:inkscape="http://www.inkscape.org/namespaces/inkscape"
   width="210mm"
   height="297mm"
   id="svg2"
   version="1.1"
   inkscape:version="0.48.4 r9939"
   sodipodi:docname="inkscape_01.svg">
  <defs
     id="defs4">
    <inkscape:perspective
       sodipodi:type="inkscape:persp3d"
       inkscape:vp_x="-153.45922 : 568.6478 : 1"
       inkscape:vp_y="0 : 1000 : 0"
       inkscape:vp_z="918.78706 : 576.36902 : 1"
       inkscape:persp3d-origin="416.44425 : -139.50999 : 1"
       id="perspective3003" />
  </defs>
  <sodipodi:namedview
     id="base"
     pagecolor="#ffffff"
     bordercolor="#666666"
     borderopacity="1.0"
     inkscape:pageopacity="0.0"
     inkscape:pageshadow="2"
     inkscape:zoom="0.7326375"
     inkscape:cx="372.04724"
     inkscape:cy="580.77835"
     inkscape:document-units="px"
     inkscape:current-layer="layer1"
     showgrid="true"
     inkscape:snap-grids="false"
     inkscape:snap-to-guides="false"
     inkscape:window-width="1680"
     inkscape:window-height="988"
     inkscape:window-x="-8"
     inkscape:window-y="-8"
     inkscape:window-maximized="1">
    <inkscape:grid
       type="xygrid"
       id="grid2989" />
  </sodipodi:namedview>
  <metadata
     id="metadata7">
    <rdf:RDF>
      <cc:Work
         rdf:about="">
        <dc:format>image/svg+xml</dc:format>
        <dc:type
           rdf:resource="http://purl.org/dc/dcmitype/StillImage" />
        <dc:title></dc:title>
      </cc:Work>
    </rdf:RDF>
  </metadata>
  <g
     inkscape:label="Ebene 1"
     inkscape:groupmode="layer"
     id="layer1">
    <path
       sodipodi:type="spiral"
       style="fill:none;stroke:#000000;stroke-width:1px;stroke-linecap:butt;stroke-linejoin:miter;stroke-opacity:1"
       id="path2985"
       sodipodi:cx="309.83945"
       sodipodi:cy="156.96712"
       sodipodi:expansion="1"
       sodipodi:revolution="3"
       sodipodi:radius="111.09737"
       sodipodi:argument="-17.736914"
       sodipodi:t0="0"
       d="m 309.83945,156.96712 c 2.46368,4.99579 -5.51873,5.78574 -8.30333,4.0948 -7.5461,-4.58234 -5.30965,-15.48114 0.11372,-20.70146 9.70114,-9.33792 25.35976,-5.50234 33.09959,4.32225 11.35852,14.41798 5.74875,35.38974 -8.53078,45.49772 -19.03236,13.47236 -45.47571,6.02094 -57.89585,-12.7393 -15.62947,-23.60785 -6.30703,-55.58895 16.94784,-70.29399 28.16475,-17.809767 65.71763,-6.60129 82.69211,21.15636 20.00384,32.71144 6.9007,75.85597 -25.36489,95.09025 -37.2519,22.20673 -86.00075,7.20354 -107.48837,-29.57342 -24.4156,-41.78831 -7.50878,-96.150053 33.78194,-119.886501 46.32194,-26.628707 106.30265,-7.815744 132.28463,37.990471 28.84493,50.85357 8.12401,116.45773 -42.19899,144.68276"
       transform="translate(-12.54698,154.42437)" />
    <text
       xml:space="preserve"
       style="font-size:18.33635712px;font-style:normal;font-weight:normal;line-height:125%;letter-spacing:0px;word-spacing:0px;fill:#000000;fill-opacity:1;stroke:none;font-family:Sans"
       x="939.4834"
       y="158.10796"
       id="text2991"
       sodipodi:linespacing="125%"
       transform="scale(0.45840894,2.1814583)"><tspan
         sodipodi:role="line"
         id="tspan2993"
         x="939.4834"
         y="158.10796">$C^{\alpha}$</tspan></text>
    <text
       xml:space="preserve"
       style="font-size:16.96145439px;font-style:normal;font-weight:normal;line-height:125%;letter-spacing:0px;word-spacing:0px;fill:#000000;fill-opacity:1;stroke:none;font-family:Sans"
       x="623.51782"
       y="75.479691"
       id="text2995"
       sodipodi:linespacing="125%"
       transform="scale(0.42403634,2.3582884)"><tspan
         sodipodi:role="line"
         id="tspan2997"
         x="623.51782"
         y="75.479691">$\sigma_{\mathrm{T}}$</tspan></text>
    <path
       style="fill:none;stroke:#000000;stroke-width:1px;stroke-linecap:butt;stroke-linejoin:miter;stroke-opacity:1"
       d="m 292.44115,155.73568 0,154.42436 167.93651,0"
       id="path2999"
       inkscape:connector-curvature="0" />
    <path
       style="fill:#d40000"
       d="m 300.72957,309.78431 c 4.69195,-0.26653 12.36969,-0.26653 17.06164,0 4.69195,0.26653 0.85309,0.4846 -8.53082,0.4846 -9.3839,0 -13.22277,-0.21807 -8.53082,-0.4846 z"
       id="path3037"
       inkscape:connector-curvature="0" />
    <path
       style="fill:#ff2a2a"
       d="m 294.24614,301.2066 c 0,-7.70746 0.2346,-8.31257 3.73936,-9.64508 4.8166,-1.83126 11.1482,-0.60881 16.89083,3.26115 4.33077,2.9185 10.76324,10.95322 10.76324,13.44422 0,0.63969 -7.06352,1.16308 -15.69671,1.16308 l -15.69672,0 0,-8.22337 z"
       id="path3039"
       inkscape:connector-curvature="0" />
    <path
       style="fill:#ff8080"
       d="m 326.98136,305.27931 c -4.54524,-10.97317 -13.77708,-16.82346 -25.40347,-16.09834 l -7.33547,0.45749 0.002,-17.40287 0.002,-17.40288 8.62432,0 c 28.02796,0 53.22044,20.68904 59.41793,48.7963 l 1.27908,5.80096 -17.43342,0 -17.43343,0 -1.71926,-4.15066 z"
       id="path3041"
       inkscape:connector-curvature="0" />
    <path
       style="fill:#ffaaaa"
       d="m 364.14728,301.61674 c -3.8889,-18.54045 -16.8942,-34.66123 -34.98069,-43.36048 -8.71523,-4.19186 -12.23258,-5.08761 -22.62019,-5.76059 l -12.30026,-0.7969 0,-16.8596 0,-16.85961 10.70112,0 c 41.65708,0 81.94074,32.02677 92.14103,73.25499 1.08295,4.37714 2.30242,10.26176 2.70994,13.07693 l 0.74094,5.11849 -17.37652,0 -17.37653,0 -1.63884,-7.81323 z"
       id="path3043"
       inkscape:connector-curvature="0" />
  </g>
</svg>
